<svg version="1.1" id="Layer_1" xmlns="http://www.w3.org/2000/svg" xmlns:xlink="http://www.w3.org/1999/xlink" x="0px" y="0px"
	 width="100%" viewBox="0 0 225 225" enable-background="new 0 0 225 225" xml:space="preserve">
<path fill="#FF0103" opacity="1.000000" stroke="none" 
	d="
M113.000000,226.000000 
	C75.333336,226.000000 38.166672,226.000000 1.000005,226.000000 
	C1.000003,151.000000 1.000003,76.000015 1.000002,1.000015 
	C75.999992,1.000010 150.999985,1.000010 225.999969,1.000005 
	C225.999985,75.999985 225.999985,150.999969 226.000000,225.999969 
	C188.500000,226.000000 151.000000,226.000000 113.000000,226.000000 
M141.305099,82.426376 
	C127.307137,82.283371 113.309303,82.116982 99.310989,82.032784 
	C97.878105,82.024178 96.442268,82.507889 94.126175,82.906044 
	C91.747871,82.851234 89.369568,82.796417 86.778976,82.540749 
	C86.484146,82.408768 86.228935,82.471893 85.143715,82.884186 
	C83.088470,82.822144 81.033234,82.760094 78.538712,82.377853 
	C77.700157,82.479614 76.861610,82.581383 75.103439,82.846649 
	C70.732750,82.811813 66.362061,82.776970 61.743320,82.562218 
	C61.414101,82.484604 61.164082,82.601738 60.544987,83.342117 
	C60.956642,85.174072 60.789116,87.523430 61.882011,88.746803 
	C66.201187,93.581635 70.630615,98.406464 75.600784,102.534752 
	C78.172966,104.671257 81.931931,106.393044 85.209328,106.491905 
	C99.845177,106.933395 114.500710,106.717743 129.149109,106.751305 
	C131.978088,106.757790 134.823288,106.638512 137.631897,106.895477 
	C141.578583,107.256584 143.705444,109.964317 143.682892,113.592712 
	C143.660538,117.195221 141.592804,119.865318 137.601410,120.270790 
	C136.282333,120.404793 134.942520,120.356148 133.612213,120.354782 
	C122.958839,120.343834 112.305260,120.279625 101.652199,120.329575 
	C97.491920,120.349075 95.518150,122.510086 97.563866,124.685822 
	C103.589478,131.094391 110.024757,137.118774 116.341682,143.250244 
	C116.773979,143.669861 117.555618,143.936691 118.170792,143.929550 
	C126.641830,143.831314 135.313461,144.779205 143.538086,143.283340 
	C157.841156,140.681915 167.375763,127.800713 167.287827,113.450371 
	C167.189621,97.424698 158.375854,86.769997 141.305099,82.426376 
z"/>
<path fill="#FEFBFB" opacity="1.000000" stroke="none" 
	d="
M86.991264,82.741608 
	C89.369568,82.796417 91.747871,82.851234 95.028534,82.921600 
	C111.285988,82.916794 126.641098,82.896439 141.996201,82.876083 
	C158.375854,86.769997 167.189621,97.424698 167.287827,113.450371 
	C167.375763,127.800713 157.841156,140.681915 143.538086,143.283340 
	C135.313461,144.779205 126.641830,143.831314 118.170792,143.929550 
	C117.555618,143.936691 116.773979,143.669861 116.341682,143.250244 
	C110.024757,137.118774 103.589478,131.094391 97.563866,124.685822 
	C95.518150,122.510086 97.491920,120.349075 101.652199,120.329575 
	C112.305260,120.279625 122.958839,120.343834 133.612213,120.354782 
	C134.942520,120.356148 136.282333,120.404793 137.601410,120.270790 
	C141.592804,119.865318 143.660538,117.195221 143.682892,113.592712 
	C143.705444,109.964317 141.578583,107.256584 137.631897,106.895477 
	C134.823288,106.638512 131.978088,106.757790 129.149109,106.751305 
	C114.500710,106.717743 99.845177,106.933395 85.209328,106.491905 
	C81.931931,106.393044 78.172966,104.671257 75.600784,102.534752 
	C70.630615,98.406464 66.201187,93.581635 61.882011,88.746803 
	C60.789116,87.523430 60.956642,85.174072 61.029228,83.146034 
	C61.672764,82.880684 61.832066,82.811409 61.991367,82.742126 
	C66.362061,82.776970 70.732750,82.811813 75.926697,82.856682 
	C77.492630,82.810493 78.235306,82.754272 78.977989,82.698044 
	C81.033234,82.760094 83.088470,82.822144 85.822174,82.884552 
	C86.664177,82.837151 86.827721,82.789375 86.991264,82.741608 
z"/>
<path fill="#EF0505" opacity="1.000000" stroke="none" 
	d="
M141.650650,82.651230 
	C126.641098,82.896439 111.285988,82.916794 95.469345,82.850143 
	C96.442268,82.507889 97.878105,82.024178 99.310989,82.032784 
	C113.309303,82.116982 127.307137,82.283371 141.650650,82.651230 
z"/>
<path fill="#EF0505" opacity="1.000000" stroke="none" 
	d="
M78.758347,82.537949 
	C78.235306,82.754272 77.492630,82.810493 76.386505,82.774933 
	C76.861610,82.581383 77.700157,82.479614 78.758347,82.537949 
z"/>
<path fill="#EF0505" opacity="1.000000" stroke="none" 
	d="
M61.867344,82.652176 
	C61.832066,82.811409 61.672764,82.880684 61.253365,82.931786 
	C61.164082,82.601738 61.414101,82.484604 61.867344,82.652176 
z"/>
<path fill="#EF0505" opacity="1.000000" stroke="none" 
	d="
M86.885117,82.641174 
	C86.827721,82.789375 86.664177,82.837151 86.256989,82.807510 
	C86.228935,82.471893 86.484146,82.408768 86.885117,82.641174 
z"/>
</svg>